<?xml version="1.0" encoding="utf-8"?>
<!-- Generator: Adobe Illustrator 15.1.0, SVG Export Plug-In . SVG Version: 6.00 Build 0)  -->
<!DOCTYPE svg PUBLIC "-//W3C//DTD SVG 1.1//EN" "http://www.w3.org/Graphics/SVG/1.1/DTD/svg11.dtd">
<svg version="1.1" id="Layer_1" xmlns="http://www.w3.org/2000/svg" xmlns:xlink="http://www.w3.org/1999/xlink" x="0px" y="0px"
	 width="511.875px" height="511.824px" viewBox="0 0 511.875 511.824" enable-background="new 0 0 511.875 511.824"
	 xml:space="preserve">
<g id="circle">
	<path id="path3774" fill="#9F1D20" d="M161.082,18.315C55.169,61.548-12.342,167.146,2.624,291.966
		c7.936,66.192,43.984,144.903,139.825,197.738c54.581,19.092,89.999,27.604,149.227,19.225
		c51.861-7.335,112.916-29.307,163.459-91.681c-75.328-91.643-79.321-88.834-184.287-237.836l-0.287,0.641
		C209.592,86.894,210.33,86.627,161.082,18.315z"/>
	<path id="path3615" fill="#3E5BA9" d="M454.216,417.269c48.644-58.404,66.304-137.19,54.988-196.982l-0.075-0.525
		C491.373,86.161,350.287-46.621,161.557,16.205c46.027,67.587,49.391,70.379,108.614,162.386
		C340.199,286.596,390.291,351.93,454.216,417.269z"/>
</g>
<g id="right_leg" enable-background="new    ">
	<path fill="#FFFFFF" d="M382.688,501.389C341.438,275.412,197.938,89.412,34.052,44.855L144.086,7.001
		c120.352,40.078,309.018,289.054,326.829,485.378C470.915,492.379,384.356,512.723,382.688,501.389"/>
</g>
<g id="left_leg" enable-background="new    ">
	<path fill="#FFFFFF" d="M249.824,138.002c-72.584,54.271-179.72,215.076-203.64,362.619c27.532,0.162,60.064,0.613,87.597-0.762
		c18.656-120.114,98.323-259.447,166.568-308.631L249.824,138.002z"/>
</g>
</svg>
